<svg xmlns="http://www.w3.org/2000/svg" version="1.1" xmlns:xlink="http://www.w3.org/1999/xlink" xmlns:svgjs="http://svgjs.com/svgjs" width="1440" height="560" preserveAspectRatio="none" viewBox="0 0 1440 560"><g mask="url(&quot;#SvgjsMask1023&quot;)" fill="none"><rect width="1440" height="560" x="0" y="0" fill="rgba(255, 206, 52, 1)"></rect><path d="M0,311.166C59.759,309.677,114.355,287.254,168.929,262.859C232.522,234.432,318.283,221.855,344.326,157.249C370.531,92.242,313.112,24.817,291.801,-41.955C274.295,-96.805,269.411,-157.296,230.418,-199.658C191.926,-241.477,135.13,-258.684,79.912,-272.154C26.738,-285.125,-26.85,-284.07,-80.925,-275.606C-141.974,-266.05,-205.933,-258.996,-253.799,-219.918C-305.773,-177.486,-344.619,-117.312,-355.842,-51.162C-367.189,15.718,-348.811,84.984,-315.558,144.111C-283.86,200.473,-231.577,241.159,-174.427,271.414C-120.634,299.892,-60.847,312.682,0,311.166" fill="#f9bd00"></path><path d="M1440 960.423C1519.528 973.009 1609.444 972.191 1673.814 923.822 1737.41 876.0350000000001 1758.248 789.813 1771.4470000000001 711.367 1782.568 645.272 1760.446 581.062 1742.341 516.53 1726.467 459.949 1709.663 404.062 1672.468 358.565 1634.531 312.15999999999997 1583.478 281.529 1529.287 255.916 1466.636 226.305 1402.994 193.762 1333.862 198.526 1256.161 203.88099999999997 1168.297 221.76 1121.501 284.019 1074.88 346.046 1109.827 434.137 1099.018 510.974 1088.254 587.493 1027.327 663.527 1058.145 734.387 1088.941 805.196 1182.909 817.315 1249.356 856.648 1312.906 894.2660000000001 1367.059 948.88 1440 960.423" fill="#ffdc6e"></path></g><defs><mask id="SvgjsMask1023"><rect width="1440" height="560" fill="#ffffff"></rect></mask></defs></svg>